<svg width="21" height="21" viewBox="0 0 21 21" fill="none" xmlns="http://www.w3.org/2000/svg">
<path d="M13.9866 11.3701V18.3331" stroke="#252B61" stroke-width="2" stroke-linecap="round" stroke-linejoin="round"/>
<path d="M7.02362 11.3701V18.3331" stroke="#252B61" stroke-width="2" stroke-linecap="round" stroke-linejoin="round"/>
<path d="M10.5051 13.1108V20.0738" stroke="#252B61" stroke-width="2" stroke-linecap="round" stroke-linejoin="round"/>
<path d="M17.4681 14.486C18.383 14.0853 19.1323 13.382 19.5901 12.4942C20.0479 11.6064 20.1863 10.5882 19.9822 9.61037C19.7781 8.63257 19.2438 7.75476 18.469 7.12429C17.6943 6.49381 16.7262 6.14905 15.7273 6.14788H14.6307C14.3548 5.07951 13.8289 4.09202 13.0965 3.26678C12.364 2.44154 11.4459 1.80218 10.4179 1.40142C9.38981 1.00065 8.28123 0.849946 7.1835 0.961725C6.08576 1.0735 5.03031 1.44457 4.10414 2.04433C3.17796 2.64409 2.40758 3.45537 1.8565 4.41131C1.30542 5.36725 0.98941 6.44047 0.934524 7.54251C0.879638 8.64456 1.08744 9.74387 1.54082 10.7498C1.99419 11.7558 2.68014 12.6396 3.54214 13.3284" stroke="#252B61" stroke-width="2" stroke-linecap="round" stroke-linejoin="round"/>
</svg>
